<svg width="107" height="33" viewBox="0 0 107 33" fill="none" xmlns="http://www.w3.org/2000/svg">
<path d="M11.832 23.216C11.528 22.704 11.28 22.272 11.088 21.92C10.896 21.552 10.712 21.208 10.536 20.888C10.376 20.552 10.2 20.192 10.008 19.808C9.736 19.28 9.472 18.8 9.216 18.368C8.96 17.936 8.672 17.52 8.352 17.12C8.048 16.704 7.672 16.264 7.224 15.8C6.664 15.832 6.144 15.832 5.664 15.8V19.688C5.664 20.568 5.768 21.152 5.976 21.44C6.2 21.712 6.608 21.872 7.2 21.92C7.248 22.064 7.28 22.248 7.296 22.472C7.312 22.68 7.32 22.88 7.32 23.072C6.808 23.04 6.256 23.016 5.664 23C5.072 23 4.6 23 4.248 23C3.8 23 3.28 23 2.688 23C2.112 23.016 1.632 23.04 1.248 23.072C1.248 22.864 1.256 22.664 1.272 22.472C1.288 22.264 1.32 22.08 1.368 21.92C2.024 21.872 2.464 21.712 2.688 21.44C2.912 21.152 3.024 20.584 3.024 19.736V10.04C3.024 9.192 2.912 8.624 2.688 8.336C2.464 8.032 2.024 7.872 1.368 7.856C1.32 7.696 1.288 7.512 1.272 7.304C1.256 7.096 1.248 6.904 1.248 6.728C1.52 6.744 1.944 6.76 2.52 6.776C3.112 6.776 3.712 6.776 4.32 6.776C4.944 6.776 5.608 6.768 6.312 6.752C7.032 6.736 7.752 6.728 8.472 6.728C9.704 6.728 10.712 6.912 11.496 7.28C12.296 7.632 12.88 8.12 13.248 8.744C13.632 9.368 13.824 10.064 13.824 10.832C13.824 11.952 13.464 12.896 12.744 13.664C12.04 14.432 11.088 14.968 9.888 15.272C10.288 15.656 10.632 16.04 10.92 16.424C11.208 16.792 11.504 17.224 11.808 17.72C12.128 18.216 12.512 18.848 12.96 19.616C13.264 20.16 13.544 20.592 13.8 20.912C14.056 21.216 14.344 21.44 14.664 21.584C15 21.728 15.44 21.816 15.984 21.848C15.984 22.056 15.976 22.256 15.96 22.448C15.944 22.624 15.912 22.808 15.864 23C15.16 23 14.456 23.008 13.752 23.024C13.048 23.056 12.408 23.12 11.832 23.216ZM7.32 7.904C7 7.904 6.712 7.92 6.456 7.952C6.2 7.968 5.936 8.008 5.664 8.072V14.552C6 14.6 6.336 14.624 6.672 14.624C7.488 14.624 8.224 14.504 8.88 14.264C9.552 14.008 10.08 13.624 10.464 13.112C10.864 12.6 11.064 11.936 11.064 11.12C11.064 10.16 10.776 9.384 10.2 8.792C9.624 8.2 8.664 7.904 7.32 7.904ZM22.5821 23.216C21.4301 23.216 20.4381 22.984 19.6061 22.52C18.7741 22.056 18.1261 21.4 17.6621 20.552C17.2141 19.688 16.9901 18.68 16.9901 17.528C16.9901 16.408 17.2301 15.416 17.7101 14.552C18.2061 13.688 18.8701 13.016 19.7021 12.536C20.5501 12.04 21.5181 11.792 22.6061 11.792C23.8061 11.792 24.8221 12.032 25.6541 12.512C26.4861 12.992 27.1181 13.656 27.5501 14.504C27.9821 15.352 28.1981 16.344 28.1981 17.48C28.1981 18.6 27.9661 19.592 27.5021 20.456C27.0381 21.32 26.3821 22 25.5341 22.496C24.7021 22.976 23.7181 23.216 22.5821 23.216ZM22.8221 21.944C23.7181 21.944 24.3821 21.56 24.8141 20.792C25.2461 20.024 25.4621 19.04 25.4621 17.84C25.4621 16.848 25.3181 15.992 25.0301 15.272C24.7581 14.552 24.3821 14 23.9021 13.616C23.4381 13.232 22.9261 13.04 22.3661 13.04C21.4861 13.04 20.8301 13.408 20.3981 14.144C19.9661 14.88 19.7501 15.824 19.7501 16.976C19.7501 18.528 20.0221 19.744 20.5661 20.624C21.1261 21.504 21.8781 21.944 22.8221 21.944ZM39.2368 21.272C38.8048 21.896 38.2608 22.376 37.6048 22.712C36.9488 23.048 36.1648 23.216 35.2528 23.216C34.3568 23.216 33.5088 23.008 32.7088 22.592C31.9248 22.176 31.2848 21.552 30.7888 20.72C30.2928 19.872 30.0448 18.816 30.0448 17.552C30.0448 16.592 30.2368 15.672 30.6208 14.792C31.0208 13.912 31.6048 13.192 32.3728 12.632C33.1408 12.072 34.0848 11.792 35.2048 11.792C36.7568 11.792 38.0048 12.144 38.9488 12.848C38.8688 13.312 38.8128 13.776 38.7808 14.24C38.7648 14.688 38.7568 15.16 38.7568 15.656C38.5968 15.736 38.3888 15.792 38.1328 15.824C37.8768 15.856 37.6448 15.872 37.4368 15.872C37.3568 14.96 37.1008 14.256 36.6688 13.76C36.2528 13.264 35.7168 13.016 35.0608 13.016C34.3088 13.016 33.7168 13.384 33.2848 14.12C32.8528 14.856 32.6368 15.88 32.6368 17.192C32.6368 17.96 32.7648 18.688 33.0208 19.376C33.2768 20.064 33.6528 20.632 34.1488 21.08C34.6448 21.512 35.2688 21.728 36.0208 21.728C37.0768 21.728 37.9488 21.304 38.6368 20.456C38.7648 20.536 38.8848 20.648 38.9968 20.792C39.1088 20.936 39.1888 21.096 39.2368 21.272ZM40.3082 23.072C40.3082 22.88 40.3162 22.68 40.3322 22.472C40.3482 22.264 40.3802 22.08 40.4282 21.92C41.0682 21.904 41.5002 21.752 41.7242 21.464C41.9642 21.176 42.0842 20.632 42.0842 19.832V9.344C42.0842 8.768 41.9802 8.344 41.7722 8.072C41.5802 7.784 41.0842 7.64 40.2842 7.64C40.2842 7.432 40.3002 7.248 40.3322 7.088C40.3642 6.912 40.4202 6.752 40.5002 6.608C40.8362 6.608 41.2362 6.568 41.7002 6.488C42.1802 6.408 42.6362 6.304 43.0682 6.176C43.5002 6.048 43.8202 5.92 44.0282 5.792C44.1882 5.856 44.3242 5.968 44.4362 6.128C44.5482 6.288 44.6042 6.528 44.6042 6.848V16.832L46.3562 15.248C46.8842 14.784 47.2522 14.416 47.4602 14.144C47.6682 13.856 47.7722 13.632 47.7722 13.472C47.7722 13.216 47.5482 13.088 47.1002 13.088C46.9882 12.736 46.9322 12.36 46.9322 11.96C47.4122 11.976 47.8842 11.992 48.3482 12.008C48.8282 12.008 49.2682 12.008 49.6682 12.008C49.9562 12.008 50.3002 12.008 50.7002 12.008C51.1002 11.992 51.5082 11.976 51.9242 11.96C51.9242 12.152 51.9082 12.352 51.8762 12.56C51.8602 12.752 51.8122 12.928 51.7322 13.088C51.2362 13.12 50.7642 13.24 50.3162 13.448C49.8842 13.656 49.3722 14.024 48.7802 14.552L46.7162 16.424C47.2442 16.968 47.7802 17.552 48.3242 18.176C48.8682 18.8 49.4922 19.544 50.1962 20.408C50.4842 20.776 50.7402 21.064 50.9642 21.272C51.1882 21.464 51.4202 21.6 51.6602 21.68C51.9002 21.76 52.1962 21.816 52.5482 21.848C52.5482 22.088 52.5322 22.304 52.5002 22.496C52.4842 22.672 52.4522 22.84 52.4042 23C51.8122 23 51.2442 23.016 50.7002 23.048C50.1562 23.08 49.6202 23.136 49.0922 23.216C48.7722 22.736 48.3642 22.176 47.8682 21.536C47.3882 20.896 46.8602 20.24 46.2842 19.568C45.7082 18.88 45.1482 18.248 44.6042 17.672V19.832C44.6042 20.616 44.7002 21.16 44.8922 21.464C45.1002 21.752 45.4602 21.904 45.9722 21.92C46.0202 22.096 46.0522 22.296 46.0682 22.52C46.0842 22.728 46.0922 22.912 46.0922 23.072C45.6922 23.04 45.2362 23.016 44.7242 23C44.2282 23 43.7322 23 43.2362 23C42.7402 23 42.2202 23 41.6762 23C41.1322 23.016 40.6762 23.04 40.3082 23.072ZM43.9562 17L43.8842 17.48L44.1722 17.216C44.0922 17.136 44.0202 17.064 43.9562 17ZM58.8801 23.216C57.6801 23.216 56.6881 22.96 55.9041 22.448C55.1201 21.936 54.5361 21.256 54.1521 20.408C53.7681 19.544 53.5761 18.584 53.5761 17.528C53.5761 16.472 53.7841 15.512 54.2001 14.648C54.6321 13.768 55.2321 13.072 56.0001 12.56C56.7681 12.048 57.6801 11.792 58.7361 11.792C59.8081 11.792 60.6721 12.016 61.3281 12.464C61.9841 12.912 62.4721 13.512 62.7921 14.264C63.1281 15.016 63.3201 15.864 63.3681 16.808C63.2881 17.176 63.1521 17.48 62.9601 17.72C62.5761 17.72 62.0161 17.72 61.2801 17.72C60.5441 17.72 59.7361 17.728 58.8561 17.744C57.9761 17.76 57.1281 17.792 56.3121 17.84C56.3761 18.528 56.5201 19.168 56.7441 19.76C56.9841 20.352 57.3441 20.832 57.8241 21.2C58.3041 21.552 58.9441 21.728 59.7441 21.728C60.2721 21.728 60.8001 21.616 61.3281 21.392C61.8561 21.168 62.3121 20.848 62.6961 20.432C62.8401 20.496 62.9681 20.616 63.0801 20.792C63.1921 20.968 63.2561 21.136 63.2721 21.296C62.7121 21.984 62.0641 22.48 61.3281 22.784C60.6081 23.072 59.7921 23.216 58.8801 23.216ZM58.5681 13.04C58.2001 13.04 57.8481 13.152 57.5121 13.376C57.1761 13.584 56.8961 13.944 56.6721 14.456C56.4481 14.952 56.3201 15.648 56.2881 16.544H60.6561C60.6561 15.488 60.4721 14.64 60.1041 14C59.7361 13.36 59.2241 13.04 58.5681 13.04ZM69.4245 23.216C68.4325 23.216 67.6885 22.96 67.1925 22.448C66.7125 21.936 66.4725 21.096 66.4725 19.928V13.736C66.2325 13.656 65.9765 13.592 65.7045 13.544C65.4485 13.496 65.1285 13.456 64.7445 13.424C64.7445 13.2 64.7605 13 64.7925 12.824C64.8245 12.648 64.8805 12.456 64.9605 12.248H66.4725V9.152C66.8565 9.072 67.2325 8.936 67.6005 8.744C67.9845 8.552 68.3045 8.344 68.5605 8.12C68.7365 8.2 68.8565 8.312 68.9205 8.456C68.9845 8.6 69.0165 8.928 69.0165 9.44V12.248H72.0885C72.0885 12.648 72.0165 13.048 71.8725 13.448C70.7205 13.48 69.7685 13.584 69.0165 13.76V19.448C69.0165 20.296 69.1285 20.904 69.3525 21.272C69.5925 21.624 69.9285 21.8 70.3605 21.8C70.9365 21.8 71.4565 21.624 71.9205 21.272C72.1285 21.528 72.2485 21.832 72.2805 22.184C71.9925 22.472 71.5765 22.72 71.0325 22.928C70.5045 23.12 69.9685 23.216 69.4245 23.216ZM78.9426 23.216C77.7426 23.216 76.7506 22.96 75.9666 22.448C75.1826 21.936 74.5986 21.256 74.2146 20.408C73.8306 19.544 73.6386 18.584 73.6386 17.528C73.6386 16.472 73.8466 15.512 74.2626 14.648C74.6946 13.768 75.2946 13.072 76.0626 12.56C76.8306 12.048 77.7426 11.792 78.7986 11.792C79.8706 11.792 80.7346 12.016 81.3906 12.464C82.0466 12.912 82.5346 13.512 82.8546 14.264C83.1906 15.016 83.3826 15.864 83.4306 16.808C83.3506 17.176 83.2146 17.48 83.0226 17.72C82.6386 17.72 82.0786 17.72 81.3426 17.72C80.6066 17.72 79.7986 17.728 78.9186 17.744C78.0386 17.76 77.1906 17.792 76.3746 17.84C76.4386 18.528 76.5826 19.168 76.8066 19.76C77.0466 20.352 77.4066 20.832 77.8866 21.2C78.3666 21.552 79.0066 21.728 79.8066 21.728C80.3346 21.728 80.8626 21.616 81.3906 21.392C81.9186 21.168 82.3746 20.848 82.7586 20.432C82.9026 20.496 83.0306 20.616 83.1426 20.792C83.2546 20.968 83.3186 21.136 83.3346 21.296C82.7746 21.984 82.1266 22.48 81.3906 22.784C80.6706 23.072 79.8546 23.216 78.9426 23.216ZM78.6306 13.04C78.2626 13.04 77.9106 13.152 77.5746 13.376C77.2386 13.584 76.9586 13.944 76.7346 14.456C76.5106 14.952 76.3826 15.648 76.3506 16.544H80.7186C80.7186 15.488 80.5346 14.64 80.1666 14C79.7986 13.36 79.2866 13.04 78.6306 13.04ZM90.591 23.216C89.391 23.216 88.399 22.96 87.615 22.448C86.831 21.936 86.247 21.256 85.863 20.408C85.479 19.544 85.287 18.584 85.287 17.528C85.287 16.472 85.495 15.512 85.911 14.648C86.343 13.768 86.943 13.072 87.711 12.56C88.479 12.048 89.391 11.792 90.447 11.792C91.519 11.792 92.383 12.016 93.039 12.464C93.695 12.912 94.183 13.512 94.503 14.264C94.839 15.016 95.031 15.864 95.079 16.808C94.999 17.176 94.863 17.48 94.671 17.72C94.287 17.72 93.727 17.72 92.991 17.72C92.255 17.72 91.447 17.728 90.567 17.744C89.687 17.76 88.839 17.792 88.023 17.84C88.087 18.528 88.231 19.168 88.455 19.76C88.695 20.352 89.055 20.832 89.535 21.2C90.015 21.552 90.655 21.728 91.455 21.728C91.983 21.728 92.511 21.616 93.039 21.392C93.567 21.168 94.023 20.848 94.407 20.432C94.551 20.496 94.679 20.616 94.791 20.792C94.903 20.968 94.967 21.136 94.983 21.296C94.423 21.984 93.775 22.48 93.039 22.784C92.319 23.072 91.503 23.216 90.591 23.216ZM90.279 13.04C89.911 13.04 89.559 13.152 89.223 13.376C88.887 13.584 88.607 13.944 88.383 14.456C88.159 14.952 88.031 15.648 87.999 16.544H92.367C92.367 15.488 92.183 14.64 91.815 14C91.447 13.36 90.935 13.04 90.279 13.04ZM101.207 19.28C101.207 19.984 101.279 20.52 101.423 20.888C101.567 21.256 101.799 21.512 102.119 21.656C102.455 21.8 102.887 21.888 103.415 21.92C103.463 22.064 103.495 22.24 103.511 22.448C103.543 22.64 103.559 22.848 103.559 23.072C103.159 23.04 102.663 23.016 102.071 23C101.495 23 100.911 23 100.319 23C99.7114 23 99.0714 23 98.3994 23C97.7434 23.016 97.2394 23.04 96.8874 23.072C96.8874 22.816 96.8954 22.6 96.9114 22.424C96.9274 22.232 96.9674 22.064 97.0314 21.92C97.6554 21.872 98.0794 21.712 98.3034 21.44C98.5434 21.152 98.6634 20.584 98.6634 19.736V15.416C98.6634 14.808 98.5594 14.368 98.3514 14.096C98.1594 13.824 97.6714 13.672 96.8874 13.64C96.8874 13.432 96.9034 13.248 96.9354 13.088C96.9674 12.912 97.0234 12.752 97.1034 12.608C97.7114 12.576 98.3594 12.48 99.0474 12.32C99.7354 12.16 100.263 11.984 100.631 11.792C100.791 11.856 100.927 11.976 101.039 12.152C101.151 12.312 101.207 12.568 101.207 12.92C101.207 13.352 101.167 13.752 101.087 14.12C101.023 14.488 100.951 14.864 100.871 15.248C100.967 14.96 101.055 14.712 101.135 14.504C101.215 14.28 101.303 14.088 101.399 13.928C101.751 13.384 102.167 12.928 102.647 12.56C103.143 12.176 103.711 11.984 104.351 11.984C104.959 11.984 105.511 12.176 106.007 12.56C105.943 12.992 105.895 13.496 105.863 14.072C105.831 14.648 105.823 15.152 105.839 15.584C105.663 15.648 105.431 15.704 105.143 15.752C104.855 15.8 104.567 15.824 104.279 15.824C104.247 15.104 104.127 14.624 103.919 14.384C103.727 14.128 103.471 14 103.151 14C102.879 14 102.591 14.152 102.287 14.456C101.983 14.76 101.727 15.16 101.519 15.656C101.311 16.152 101.207 16.696 101.207 17.288V19.28Z" fill="#F2F2F2"/>
</svg>
